<?xml version="1.0" encoding="utf-8"?>
<!-- Generator: Adobe Illustrator 28.1.0, SVG Export Plug-In . SVG Version: 6.00 Build 0)  -->
<svg version="1.1" id="katman_1" xmlns="http://www.w3.org/2000/svg" xmlns:xlink="http://www.w3.org/1999/xlink" x="0px" y="0px"
	 viewBox="0 0 1295 155" style="enable-background:new 0 0 1295 155;" xml:space="preserve">
<style type="text/css">
	.st0{fill:#E7E7D8;}
	.st1{opacity:0.41;fill:#1E1E1D;}
	.st2{fill:#F09235;}
	.st3{fill:#EC642B;stroke:#1E1E1D;stroke-width:0.107;stroke-miterlimit:10;}
	.st4{fill:none;}
	.st5{fill:#ED762F;stroke:#1E1E1D;stroke-width:0.107;stroke-miterlimit:10;}
	.st6{fill:#F09235;stroke:#1E1E1D;stroke-width:0.107;stroke-miterlimit:10;}
	.st7{opacity:0.21;}
	.st8{fill:#1E1E1D;}
</style>
<rect class="st0" width="1295" height="155"/>
<path class="st0" d="M1283,155H12c-6.6,0-12-5.4-12-12V12C0,5.4,5.4,0,12,0h1271c6.6,0,12,5.4,12,12v131
	C1295,149.6,1289.6,155,1283,155z"/>
<g>
	<path class="st1" d="M1161.3,123.1c0,3.4-47,10.9-98.1,10.9s-93.6-2.8-93.6-6.2c0-3.4,42.5-6.1,93.6-6.1S1161.3,119.7,1161.3,123.1
		z"/>
	<g>
		<g>
			<path class="st2" d="M1148.5,117.6c-6.4-1-12.8-2.1-19.2-2.9C1136.8,115.8,1143.2,116.8,1148.5,117.6z M1111.1,111.9
				c-2.6-0.4-5.2-0.8-7.7-1.2C1106,111.1,1108.6,111.5,1111.1,111.9z M1043.3,110.3c9.8-1.1,20-1.9,30.5-2.4c-0.4,0-0.9,0-1.3,0
				C1062.7,108.1,1053,109.1,1043.3,110.3z"/>
		</g>
		<g>
			<path class="st3" d="M1161.3,123.1c0,0-63.5-9.9-80.4-10.9c-14.9-1.1-50.8,3.2-71.8,7c-17.7,3.2-35,7.9-39.4,8.7
				c-0.4,0.1-0.6-0.5-0.3-0.7c3.2-2.4,15.1-10.4,20.3-13.8c0.7-0.5,1.6-1.7,1.6-1.7c3.4,4.5,13.6,4.6,22.7,3.3
				c4.5-0.7,8.9-1.7,13.4-2.5c4.7-0.7,9.5-1.4,14.2-1.9c0.5-0.1,1.1-0.1,1.6-0.2c9.7-1.1,19.4-2.2,29.2-2.3c0.4,0,0.9,0,1.3,0
				c0,0,0,0,0,0c9.8,0,19.7,1.5,29.4,2.8c0.1,0,0.1,0,0.2,0c2.5,0.3,5,0.7,7.7,1.2c0,0,0.1,0,0.1,0c5.9,0.9,12.1,2,18.1,2.8l0.1,0
				c6.4,0.8,12.8,2,19.2,2.9c0.1,0,0.2,0,0.3,0c2,0.3,3.9,0.6,5.9,0.9c1.3,0.2,2.7,0.4,4,0.6c0.6,0.1,1.2,0.2,1.7,0.2
				c0.2,0,0.4,0.1,0.6,0.1c0.1,0,0.2,0,0.4,0l0.1,0l0.2,0.1C1163.9,121.6,1161.7,123.3,1161.3,123.1z"/>
		</g>
		<g>
			<g>
				<g>
					<path class="st4" d="M1132.8,91.5c1.5,0.3,3.1-0.1,4.2-1.1c4.9-4.5,15.7-18.9-10.2-41.9c-3.4-3.1-7.2-5.5-11.2-7.5
						c-33.3-16.7-83.2,0-91.2,5.8c-0.5,0.4-32.8,18.8-16.1,41.4c2.1,2.9,5.4,4.9,9.1,5.7c4.3,0.9,9.8,0.7,13.6-0.5
						c5.2-1.7,36.9-8.1,73.3-5.6C1113.6,88.3,1123.2,89.5,1132.8,91.5z"/>
				</g>
				<g>
					<path class="st5" d="M1161.7,119.5c-4.3-1.8-6.2-4.3-6.7-6.3c-0.2-0.9-0.2-1.8-0.2-2.4c0.1-0.9,0.1-1.9,0-2.8
						c-4.9-46.4-18.3-61.6-21.9-65c-0.7-0.6-1.3-1.2-2-1.9c-2-2-6.9-6.5-15.1-10.6c-9.8-4.9-24.3-9.4-44-8.4
						c-39,1.9-63.3,27.4-66.2,30.5c-1.1,1.2-1.9,2.4-1.9,2.4c-2.3,3.1-8.8,12.7-11,39.3c-0.3,3.7-0.6,8.7-0.7,14.6
						c0,1-0.8,2.8-0.8,2.8c3.4,4.5,13.6,4.6,22.7,3.3c4.4-0.9,8.8-1.7,13.4-2.5c4.7-0.7,9.5-1.4,14.2-1.9c0.5-0.1,1.1-0.1,1.6-0.2
						c9.7-1.1,19.4-2.2,29.2-2.3c0.4,0,0.9,0,1.3,0c0,0,0,0,0,0c0.5,0,0.9,0,1.4-0.1c4.6-0.2,13.5,0.8,15.8,1.1
						c4.2,0.6,8.3,1.2,12.1,1.8c0.1,0,0.1,0,0.2,0c2.5,0.3,5,0.7,7.7,1.2c0,0,0.1,0,0.1,0c6.6,1,12.6,1.9,18.1,2.8l0.1,0
						c6.4,0.8,12.8,2,19.2,2.9c0.1,0,0.2,0,0.3,0c2,0.3,3.9,0.6,5.9,0.9c1.4,0.2,2.8,0.4,4,0.6c0.6,0.1,1.2,0.2,1.7,0.2
						c0.2,0,0.4,0.1,0.6,0.1c0.1,0,0.3,0,0.4,0C1161.4,119.6,1161.7,119.5,1161.7,119.5z M1031,93.3c-3.8,1.2-9.2,1.4-13.6,0.5
						c-3.7-0.7-6.9-2.8-9.1-5.7c-16.7-22.7,15.6-41.1,16.1-41.4c8-5.8,57.9-22.5,91.2-5.8c4,2,7.8,4.5,11.2,7.5
						c25.9,23.1,15.1,37.4,10.2,41.9c-1.1,1-2.7,1.4-4.2,1.1c-9.6-2-19.2-3.2-28.5-3.8C1067.8,85.2,1036.2,91.6,1031,93.3z"/>
				</g>
			</g>
			<g>
				<path class="st6" d="M1126.8,48.5c-3.4-3.1-7.2-5.5-11.2-7.5c-33.3-16.7-83.2,0-91.2,5.8c-0.5,0.4-32.8,18.8-16.1,41.4
					c2.1,2.9,5.4,4.9,9.1,5.7c4.3,0.9,9.8,0.7,13.6-0.5c5.2-1.7,36.9-8.1,73.3-5.6c9.3,0.6,19,1.8,28.5,3.8c1.5,0.3,3.1-0.1,4.2-1.1
					C1142,85.8,1152.7,71.5,1126.8,48.5z"/>
			</g>
			<g class="st7">
				<path class="st0" d="M1154.9,110.7c0.1-0.9,0-2-0.1-2.9c-4.9-46.4-18.4-61.6-22-64.9c-0.7-0.6-1.3-1.2-2-1.9
					c-2-2-6.9-6.4-15.1-10.5c-0.6,1.9-0.8,4.2-0.4,7.1c0.1,1.1,0.2,2.2,0.2,3.2c0.4,18.6-17.9,8.3-17.4,34.6c0.1,6.1,2.5,9.7,6,12.1
					c5.4,3.7,13.7,4.7,20.9,8c4.6,2.1,7.8,7.3,11.1,11.6c1,1.4,1.8,2.9,2.2,4.6c0.7,3.1,2.7,8.3,7.5,9.2c2.1,0.4,14.5,2.4,15.8,2.3
					c-0.1,0,0.3,0,0.6-0.4c0.2-0.3,0.4-0.6,0.5-1c0-0.3,0-0.7-0.2-1.1c-0.3-0.5-0.6-0.9-0.7-0.9c0,0-0.1-0.1-0.1-0.1
					c-0.1,0-0.2-0.1-0.2-0.1c-0.1,0-0.6-0.3-0.6-0.3c-0.3-0.1-0.6-0.3-1-0.5c-1-0.6-1.8-1.2-2.7-2
					C1154.9,114.5,1154.8,111.9,1154.9,110.7z"/>
			</g>
		</g>
	</g>
</g>
<g>
	<g>
		<path class="st8" d="M164.8,66.6l-4.1,12h-7.8l16.1-44.4h10l16.1,44.4h-7.8l-4.1-12H164.8z M179.7,56.6c-2-5.9-3.9-11.7-5.7-17.6
			h-0.1c-1.8,5.9-3.6,11.7-5.7,17.6l-1.2,3.5h13.9L179.7,56.6z"/>
		<path class="st8" d="M220.2,78.6v-4.4H220c-1.9,3.2-5.4,5.1-9.4,5.1c-8,0-13.2-6.5-13.2-16.6c0-10.1,5.1-16.6,13.1-16.6
			c3.9,0,7.5,1.8,9.3,4.9h0.1V34.2h7.1v44.4H220.2z M204.8,62.8c0,6.7,3.1,11.1,7.8,11.1c4.6,0,7.7-4.2,7.7-11.1
			c0-6.9-3.1-11.1-7.7-11.1C207.9,51.7,204.8,56,204.8,62.8z"/>
		<path class="st8" d="M236.2,41v-6.8h7.1V41H236.2z M236.2,78.6V46.9h7.1v31.6H236.2z"/>
		<path class="st8" d="M252.4,78.6V34.2h7.1v44.4H252.4z"/>
		<path class="st8" d="M291.3,40.7v12h20.8v6.4h-20.8v13h22.8v6.5h-30.3V34.2h29.7v6.5H291.3z"/>
		<path class="st8" d="M367.2,59.1v19.5h-7.1V59.8c0-5.6-2.2-7.8-5.7-7.8c-4.2,0-6.7,3.6-6.7,9.6v17.1h-7.1V59c0-4.5-2-7.1-5.7-7.1
			c-4.2,0-6.7,3.6-6.7,9.7v16.9h-7.1V46.9h6.8v3.8h0.1c2.2-3.1,5-4.5,8.8-4.5c4.4,0,7.7,2,9.3,5.7c2.3-3.6,5.4-5.7,10.2-5.7
			C363.1,46.2,367.2,50.6,367.2,59.1z"/>
		<path class="st8" d="M396.5,69.1h7.3c-1.2,5.7-6.3,10.5-14.6,10.5c-9.7,0-15.3-6.9-15.3-17.1c0-9.3,5.6-16.4,15.2-16.4
			c7.2,0,12.5,4.2,14.2,10.8c0.6,2,0.9,4.4,0.9,7.4h-23.2c0.2,7.2,3.9,10.1,8.3,10.1C393.2,74.3,395.8,72.1,396.5,69.1z M381,59.5
			h16c-0.5-5.5-3.7-8.3-8-8.3C384.7,51.2,381.6,54,381,59.5z"/>
		<path class="st8" d="M430.6,78.6l-12.3-15.3h-0.1v15.3H411V34.2h7.1v25.7h0.1l11.5-13h8.3L425,61.4l14.6,17.2H430.6z"/>
		<path class="st8" d="M442.9,78.6V34.2h7.1v44.4H442.9z"/>
		<path class="st8" d="M459.1,41v-6.8h7.1V41H459.1z M459.1,78.6V46.9h7.1v31.6H459.1z"/>
		<path class="st8" d="M475.3,78.6V34.2h7.1v44.4H475.3z"/>
		<path class="st8" d="M491.5,41v-6.8h7.1V41H491.5z M491.5,78.6V46.9h7.1v31.6H491.5z"/>
		<path class="st8" d="M527.3,78.6l-12.3-15.3h-0.1v15.3h-7.1V34.2h7.1v25.7h0.1l11.5-13h8.3l-13.1,14.5l14.6,17.2H527.3z"/>
		<path class="st8" d="M571.5,34.2c10.5,0,15.9,5.5,15.9,13.8c0,8.3-5.4,13.9-15.9,13.9H563v16.6h-7.5V34.2H571.5z M563,55.7h7.7
			c6.3,0,9.1-2.9,9.1-7.6c0-4.7-2.8-7.5-9.1-7.5H563V55.7z"/>
		<path class="st8" d="M593.6,78.6V34.2h7.1v44.4H593.6z"/>
		<path class="st8" d="M634.6,58.4v11.8c0,3.7,0.3,6.4,0.8,8.3H629c-0.3-1.4-0.4-2.9-0.4-4.4h-0.1c-2.3,3.4-5.9,5.1-10.7,5.1
			c-6.6,0-10.7-4-10.7-9.4c0-5.2,3.1-8.5,12.1-10c2.6-0.4,6.3-0.8,8.5-0.9v-1.2c0-4.7-2.6-6.5-6.2-6.5c-3.9,0-6,2.2-6.2,5.5h-7
			c0.3-6,4.7-10.7,13.2-10.7C629.9,46,634.6,50.1,634.6,58.4z M627.8,63.6c-2.1,0.1-5.2,0.4-7.3,0.8c-4.5,0.7-6.2,2.1-6.2,5
			c0,2.8,2,4.7,5.6,4.7c2.2,0,4.3-0.7,5.7-2.1c1.7-1.7,2.2-3.4,2.2-6.8V63.6z"/>
		<path class="st8" d="M657.6,72.9v5.5c-1.1,0.3-2.7,0.6-4,0.6c-6.7,0-9.6-2.8-9.6-9.7V52.4h-5.3v-5.4h5.3V39h7.1v7.9h6.2v5.4h-6.2
			v15.8c0,3.6,1.2,5,4.3,5C656.2,73.2,657.1,73,657.6,72.9z"/>
		<path class="st8" d="M672.4,44.4v2.6h6.1v5.4h-6.1v26.2h-7V52.4H660v-5.4h5.4v-3.4c0-6.5,3.4-9.8,9.6-9.8c1.3,0,2.8,0.2,3.7,0.4
			v5.2c-0.4-0.1-1.1-0.2-1.7-0.2C673.9,39.2,672.4,40.7,672.4,44.4z"/>
		<path class="st8" d="M712.1,62.8c0,10.3-6,16.8-15.6,16.8c-9.6,0-15.6-6.5-15.6-16.8c0-10.3,6-16.8,15.6-16.8
			C706.1,46,712.1,52.5,712.1,62.8z M688.3,62.8c0,6.9,3.1,11.2,8.2,11.2s8.2-4.3,8.2-11.2s-3.1-11.1-8.2-11.1
			S688.3,55.9,688.3,62.8z"/>
		<path class="st8" d="M737.3,46.8v6.3c-0.9-0.2-1.7-0.2-2.5-0.2c-5.7,0-8.8,3.6-8.8,10.2v15.5H719V46.9h6.6v4.7h0.1
			c2.1-3.4,5.1-5.1,9-5.1C735.5,46.5,736.5,46.6,737.3,46.8z"/>
		<path class="st8" d="M788.5,59.1v19.5h-7.1V59.8c0-5.6-2.2-7.8-5.7-7.8c-4.2,0-6.7,3.6-6.7,9.6v17.1h-7.1V59c0-4.5-2-7.1-5.7-7.1
			c-4.2,0-6.7,3.6-6.7,9.7v16.9h-7.1V46.9h6.8v3.8h0.1c2.2-3.1,5-4.5,8.8-4.5c4.4,0,7.7,2,9.3,5.7c2.3-3.6,5.4-5.7,10.2-5.7
			C784.4,46.2,788.5,50.6,788.5,59.1z"/>
		<path class="st8" d="M796.3,66.3V46.9h7.1v18.7c0,5.7,2.4,7.9,6.4,7.9c4,0,7.2-3.1,7.2-9.1V46.9h7.1v31.6h-6.7v-4.1h-0.1
			c-2,2.9-5.3,4.9-9.5,4.9C800.7,79.3,796.3,75,796.3,66.3z"/>
	</g>
	<g>
		<path class="st8" d="M155.2,90.8h1.3l15.5,32.9l15.5-32.9h1.3V125h-1.4v-31h0l-14.7,31h-1.6l-14.6-31h0v31h-1.4V90.8z"/>
		<path class="st8" d="M193.7,112.4c0-9,4.8-13.3,11.2-13.3c6.6,0,10.7,4.4,10.7,12c0,0.8,0,1.3-0.1,1.6h-20.4
			c0,7.5,3.7,11.6,10.3,11.6c3,0,7-0.8,8.7-5.5h1.3c-2,5.5-6.2,6.7-10,6.7C197.8,125.5,193.7,120.8,193.7,112.4z M214.4,111.5
			c0-7.6-4-11.2-9.5-11.2c-5.4,0-9.8,3.5-9.9,11.2H214.4z"/>
		<path class="st8" d="M219.4,123.8l18.4-23.1h-17.9v-1.2h19.5v1.2l-18.5,23.1h18.5v1.2h-19.9V123.8z"/>
		<path class="st8" d="M241.7,118.9c0-3.5,1.8-6.2,7.8-6.8l7-0.8c3.3-0.4,4.2-1.2,4.2-2v-2c0-4.9-2.4-7-8.1-7
			c-5.7,0-8.1,2.2-8.1,5.8v0.6h-1.3v-0.6c0-5,3.8-7,9.5-7c6.2,0,9.3,2.3,9.3,8.4V125h-1.3v-5.1h-0.1c-0.9,2-4.6,5.6-11,5.6
			C244.7,125.5,241.7,123.2,241.7,118.9z M249.9,124.3c7.4,0,10.9-5.4,10.9-7.5v-6c0,0.7-1.3,1.3-4.4,1.7l-6.6,0.7
			c-5.4,0.6-6.8,2.8-6.8,5.6C243,123.1,246.4,124.3,249.9,124.3z"/>
		<path class="st8" d="M268.4,99.6h1.3v5.3h0.1c0.5-1.8,2.9-5.6,8.5-5.6c0.7,0,1.4,0,1.9,0.2v1.1c-0.5-0.1-1.1-0.1-1.7-0.1
			c-6.2,0-8.8,4.5-8.8,9.3V125h-1.3V99.6z"/>
		<path class="st8" d="M282.5,112.3c0-8.9,5.3-13.2,11.6-13.2c4.1,0,8.3,1.9,10.3,6.8V90.8h1.3V125h-1.3v-6.4
			c-2.1,4.9-6.3,6.8-10.3,6.8C287.9,125.5,282.5,121.2,282.5,112.3z M294,124.3c5.3,0,10.5-3.9,10.5-12.1c0-8.2-5.2-12.1-10.5-12.1
			c-5.3,0-10.2,3.9-10.2,12.1C283.8,120.5,288.7,124.3,294,124.3z"/>
		<path class="st8" d="M310.5,118.9c0-3.5,1.8-6.2,7.8-6.8l7-0.8c3.3-0.4,4.2-1.2,4.2-2v-2c0-4.9-2.4-7-8.1-7
			c-5.7,0-8.1,2.2-8.1,5.8v0.6h-1.3v-0.6c0-5,3.8-7,9.5-7c6.2,0,9.3,2.3,9.3,8.4V125h-1.3v-5.1h-0.1c-0.9,2-4.6,5.6-11,5.6
			C313.5,125.5,310.5,123.2,310.5,118.9z M318.7,124.3c7.4,0,10.9-5.4,10.9-7.5v-6c0,0.7-1.3,1.3-4.4,1.7l-6.6,0.7
			c-5.4,0.6-6.8,2.8-6.8,5.6C311.8,123.1,315.2,124.3,318.7,124.3z"/>
		<path class="st8" d="M348.2,90.8h20.4V92h-19.1v14.5h17.6v1.3h-17.6v15.8h19.6v1.3h-20.9V90.8z"/>
		<path class="st8" d="M400.5,100.3c-5.4,0-8.2,3.8-8.2,9.4V125H391v-15.3c0-5.6-2-9.4-7.5-9.4c-5.4,0-8.3,3.8-8.3,9.4V125H374V99.6
			h1.3v4.7h0.2c0.3-1.2,2.2-5.2,8.2-5.2c3.7,0,6.8,1.5,8.1,5.9h0.1c0.6-1.5,2.2-5.9,8.7-5.9c4.7,0,8.8,2.4,8.8,10.6V125h-1.3v-15.3
			C408.1,104.1,406,100.3,400.5,100.3z"/>
		<path class="st8" d="M414.2,112.4c0-9,4.8-13.3,11.2-13.3c6.6,0,10.7,4.4,10.7,12c0,0.8,0,1.3-0.1,1.6h-20.4
			c0,7.5,3.7,11.6,10.3,11.6c3,0,7-0.8,8.7-5.5h1.3c-2,5.5-6.2,6.7-10,6.7C418.3,125.5,414.2,120.8,414.2,112.4z M434.9,111.5
			c0-7.6-4-11.2-9.5-11.2c-5.4,0-9.8,3.5-9.9,11.2H434.9z"/>
		<path class="st8" d="M441,90.8h1.3v25.1l16.3-16.3h1.7l-11.3,11.2l12.8,14.2H460l-12-13.3l-5.8,5.8v7.5H441V90.8z"/>
		<path class="st8" d="M464.9,90.8h1.3V125h-1.3V90.8z"/>
		<path class="st8" d="M472.8,90.3c0.7,0,1.3,0.6,1.3,1.3c0,0.6-0.6,1.3-1.3,1.3c-0.7,0-1.3-0.6-1.3-1.3
			C471.6,90.9,472.1,90.3,472.8,90.3z M472.2,99.6h1.3V125h-1.3V99.6z"/>
		<path class="st8" d="M479.5,90.8h1.3V125h-1.3V90.8z"/>
		<path class="st8" d="M487.5,90.3c0.7,0,1.3,0.6,1.3,1.3c0,0.6-0.6,1.3-1.3,1.3c-0.7,0-1.3-0.6-1.3-1.3
			C486.2,90.9,486.8,90.3,487.5,90.3z M486.9,99.6h1.3V125h-1.3V99.6z"/>
		<path class="st8" d="M494,127.9h1.1c0.1,3.6,3.8,6.2,9.5,6.2c5.6,0,10.1-2.5,10.1-9v-6.9h0c-2.2,4.6-6.2,6.4-10.2,6.4
			c-6.2,0-11.5-4.2-11.5-12.7c0-8.6,5.3-12.7,11.5-12.7c4,0,8,1.8,10.2,6.4h0v-5.9h1.3V125c0,7.7-5.8,10.2-11.5,10.2
			C498.6,135.2,494.1,132.6,494,127.9z M504.4,123.4c5.3,0,10.5-3.7,10.5-11.6s-5.2-11.6-10.5-11.6c-5.3,0-10.2,3.7-10.2,11.6
			S499.1,123.4,504.4,123.4z M500.7,90.4c0.1,2.2,1.4,4.2,4.9,4.2c3.5,0,4.8-2,4.9-4.2h1.1c0,2.4-1.3,5.3-6,5.3s-6-2.9-6-5.3H500.7z
			"/>
		<path class="st8" d="M520.8,112.4c0-9,4.8-13.3,11.2-13.3c6.6,0,10.7,4.4,10.7,12c0,0.8,0,1.3-0.1,1.6h-20.4
			c0,7.5,3.7,11.6,10.3,11.6c3,0,7-0.8,8.7-5.5h1.3c-2,5.5-6.2,6.7-10,6.7C525,125.5,520.8,120.8,520.8,112.4z M541.5,111.5
			c0-7.6-4-11.2-9.5-11.2c-5.4,0-9.8,3.5-9.9,11.2H541.5z"/>
		<path class="st8" d="M582,109h-21.8V125h-1.4V90.8h1.4v17.1H582V90.8h1.4V125H582V109z"/>
		<path class="st8" d="M588.2,118.9c0-3.5,1.8-6.2,7.8-6.8l7-0.8c3.3-0.4,4.2-1.2,4.2-2v-2c0-4.9-2.4-7-8.1-7
			c-5.7,0-8.1,2.2-8.1,5.8v0.6h-1.3v-0.6c0-5,3.8-7,9.5-7c6.2,0,9.3,2.3,9.3,8.4V125h-1.3v-5.1h-0.1c-0.9,2-4.6,5.6-11,5.6
			C591.2,125.5,588.2,123.2,588.2,118.9z M596.4,124.3c7.4,0,10.9-5.4,10.9-7.5v-6c0,0.7-1.3,1.3-4.4,1.7l-6.6,0.7
			c-5.4,0.6-6.8,2.8-6.8,5.6C589.5,123.1,592.9,124.3,596.4,124.3z"/>
		<path class="st8" d="M620.9,127.8c0.5-1.5,0.6-2.4,0.3-3.2l-9.8-25.1h1.4l9.5,24.4l9.5-24.4h1.4l-11.4,29c-1.7,4.4-4.6,6-7.7,5.5
			v-1.2C617,133.3,619.4,131.9,620.9,127.8z"/>
		<path class="st8" d="M636.7,99.6h1.3V125h-1.3V99.6z"/>
		<path class="st8" d="M643.4,99.6h1.3v5.3h0.1c0.5-1.8,2.9-5.6,8.5-5.6c0.7,0,1.4,0,1.9,0.2v1.1c-0.5-0.1-1.1-0.1-1.7-0.1
			c-6.2,0-8.8,4.5-8.8,9.3V125h-1.3V99.6z"/>
		<path class="st8" d="M671.7,122.4c0.8,0,1.5,0.7,1.5,1.5c0,0.8-0.7,1.5-1.5,1.5c-0.8,0-1.5-0.7-1.5-1.5
			C670.2,123.2,670.9,122.4,671.7,122.4z M671,90.8h1.4v26.4h-1.3L671,90.8z"/>
	</g>
</g>
</svg>
